<?xml version="1.0" encoding="utf-8"?>
<!-- Generator: Adobe Illustrator 18.1.1, SVG Export Plug-In . SVG Version: 6.00 Build 0)  -->
<!DOCTYPE svg PUBLIC "-//W3C//DTD SVG 1.1//EN" "http://www.w3.org/Graphics/SVG/1.1/DTD/svg11.dtd">
<svg version="1.1" id="Layer_1" xmlns="http://www.w3.org/2000/svg" xmlns:xlink="http://www.w3.org/1999/xlink" x="0px" y="0px"
	 width="147.8px" height="142px" viewBox="0 0 147.8 142" style="enable-background:new 0 0 147.8 142;" xml:space="preserve">
<style type="text/css">
	.st0{fill:#383433;}
	.st1{display:none;fill:#383433;}
	.st2{display:none;}
	.st3{display:inline;fill:#383433;}
	.st4{fill:#FFFFFF;}
	.st5{fill:#373433;}
	.st6{font-family:'DINCondensed-Bold';}
	.st7{font-size:22.4882;}
</style>
<path class="st0" d="M141.9,0h-52H6C0,0,0,0,0,1v0.3L73.9,142L147.8,1.3V1C147.8,0,147.8,0,141.9,0z M73.9,137.5L2.8,2.1
	c6.6,0,30.2,0,30.2,0c1.1,0,97.9,0,112,0L73.9,137.5z"/>
<path class="st1" d="M55.5,112.8C27.7,105.9,8.3,81.1,8.3,52.5c0-7.7,0.4-15.8,3.3-23c0.2-0.6-0.1-1.2-0.6-1.5
	c-0.6-0.2-1.2,0.1-1.5,0.6c-3,7.6-3.4,15.9-3.4,23.8c0,29.7,20.1,55.4,48.8,62.5c0.1,0,0.2,0,0.3,0c0.5,0,1-0.3,1.1-0.8
	C56.4,113.6,56.1,113,55.5,112.8z"/>
<path class="st1" d="M136.7,27.7c-0.6,0.2-0.9,0.9-0.6,1.5c3,7.4,3.4,15.5,3.4,23.3c0,28.4-19.2,53.2-46.6,60.2
	c-0.6,0.2-1,0.8-0.8,1.4c0.1,0.5,0.6,0.8,1.1,0.8c0.1,0,0.2,0,0.3,0c28.4-7.3,48.3-33,48.3-62.4c0-8-0.4-16.4-3.5-24.1
	C137.9,27.8,137.3,27.5,136.7,27.7z"/>
<path class="st1" d="M33.4-0.7c0.3,0,0.5-0.1,0.7-0.3c11.1-9.3,25.3-14.4,39.8-14.4c14.2,0,28.1,4.9,39.1,13.8
	c0.5,0.4,1.2,0.3,1.6-0.2c0.4-0.5,0.3-1.2-0.2-1.6C103-12.5,88.6-17.6,73.9-17.6c-15,0-29.7,5.3-41.2,14.9c-0.5,0.4-0.5,1.1-0.1,1.6
	C32.8-0.8,33.1-0.7,33.4-0.7z"/>
<g>
	<g>
		<path class="st0" d="M120.3,30.7c-1-10.9-4-15.4-6.9-19.3c-0.1-0.1-0.3-0.2-0.4-0.1c-0.2,0.1-0.2,0.2-0.2,0.4c2.5,6,4.8,12,5,17.6
			l-1.4-1.4c-0.2-0.1-1.4-1.4-2.8-2.4c-0.5-2.6-1-4.3-2.9-6.4c-0.1-0.1-0.2-0.1-0.3,0c-0.1,0-0.1,0.1-0.1,0.2
			c0.7,2.2,1.5,4.2,1.5,5.3c-2.6-0.8-4-0.8-5.9-0.8c-0.1,0-0.1,0-0.1,0.1c0,0.1,0,0.1,0.1,0.2c2.3,1.3,6.1,2,6.8,3.9
			c1.1,2.7,1.8,7.3,0.3,9.3c-1.5,2-5,4-8.8,6.4l-4,7.7c0,0.1,0,0.1,0,0.2c1.2-1.5,2.6-2.8,4.3-4.1c3.9-2.9,6.4-4.5,8.9-5.7
			c2.1-1,3.8-3.1,5.6-4.2c1.8-1.2,2.8-1.6,3.2-3.5C122.4,33,121.6,31.8,120.3,30.7z M117.9,33.2c-0.2,0.4-0.4,0.8-0.8,1
			c-0.2,0.1-0.5,0.1-0.7,0c-0.2-0.1-0.4-0.4-0.4-0.6c-0.1-1.4-0.6-2.5-1.2-3.8l3,2.7C118,32.7,118.1,32.9,117.9,33.2z"/>
	</g>
	<g>
		<path class="st0" d="M34.9,37.3c-1.5-2-0.8-6.7,0.3-9.3c0.7-1.9,4.5-2.6,6.8-3.9c0.1,0,0.1-0.1,0.1-0.2c0-0.1-0.1-0.1-0.1-0.1
			c-2,0-3.4,0-5.9,0.8c0-1.1,0.8-3.1,1.5-5.3c0-0.1,0-0.2-0.1-0.2c-0.1-0.1-0.2,0-0.3,0c-1.9,2.1-2.4,3.8-2.9,6.4
			c-1.4,1-2.6,2.3-2.8,2.4L30,29.3c0.2-5.7,2.5-11.6,5-17.6c0-0.2,0-0.3-0.2-0.4c-0.2-0.1-0.3,0-0.4,0.1c-2.9,3.9-5.8,8.4-6.9,19.3
			c-1.3,1.1-2,2.3-1.8,3.3c0.4,1.9,1.4,2.3,3.2,3.5c1.9,1.2,3.6,3.3,5.6,4.2c2.5,1.2,4.9,2.8,8.9,5.7c1.4,1,2.5,2.1,3.5,3.2
			l-3.9-7.4C39.6,41,36.3,39.1,34.9,37.3z M31.8,33.6c0,0.3-0.2,0.5-0.4,0.6c-0.2,0.1-0.5,0.1-0.7,0c-0.4-0.2-0.7-0.6-0.8-1
			c-0.1-0.3,0-0.6,0.2-0.7l3-2.7C32.5,31.1,32,32.1,31.8,33.6z"/>
	</g>
</g>
<g>
	<polygon class="st0" points="45.3,40 73.9,94.5 102.5,40 	"/>
</g>
<g class="st2">
	<path class="st3" d="M46.4,14.7h2.5v9H51v-9h2.5v19.4H51v-8h-2.1v8h-2.5V14.7z"/>
	<path class="st3" d="M55.7,14.7h2.5v19.4h-2.5V14.7z"/>
	<path class="st3" d="M60.5,14.7h5.4c0.9,0,1.7,0.8,1.7,1.7v7.3c0,0.9-0.8,1.6-1.7,1.6H63v8.8h-2.5v-8.8V14.7z M65.1,17.2H63v5.6
		h2.1V17.2z"/>
	<path class="st3" d="M71.7,28.3v3.4h2.1v-6.3h-2.9c-1,0-1.7-0.8-1.7-1.6v-7.4c0-1,0.7-1.7,1.7-1.7h3.8c0.9,0,1.7,0.7,1.7,1.6v4.1
		h-2.5v-3.2h-2.1v5.7h2.9c0.9,0,1.7,0.8,1.7,1.7v8c0,0.9-0.8,1.6-1.7,1.6h-3.8c-0.9,0-1.7-0.7-1.7-1.6v-4.2H71.7z"/>
	<path class="st3" d="M79.9,17.2h-2.2v-2.5h6.9v2.5h-2.2v16.9h-2.5V17.2z"/>
	<path class="st3" d="M92.5,34.1H86V14.7h6.2v2.5h-3.7v5.4h2.6v2.5h-2.6v6.6h3.9V34.1z"/>
	<path class="st3" d="M99,25.9h-2.1v8.2h-2.5V14.7h5.1c0.9,0,1.7,0.8,1.7,1.7v6.8c0,0.7-0.4,1.2-0.9,1.4c0.8,0.2,1.2,0.9,1.2,1.6v8
		H99V25.9z M96.9,23.4h1.8v-6.2h-1.8V23.4z"/>
</g>
<path class="st4" d="M84.7,62.9h-2.5l0,0L82,62.6h1.7c0.2,0,0.4-0.2,0.4-0.4c0-0.2-0.2-0.4-0.4-0.4h-2.4l-0.3-0.3h1.7
	c0.2,0,0.4-0.2,0.4-0.4c0-0.2-0.2-0.4-0.4-0.4h-2.4l-5.4-5.4l7.5-7.5c0.1,0.2,0.2,0.5,0.3,0.7l0.2,0.9c0,0,0.1,0.1,0.1,0.1
	c0,0,0.1,0,0.1-0.1l1.2-4.6c0,0,0-0.1,0-0.1c0,0-0.1,0-0.1,0l-4.4,1.2c-0.1,0-0.1,0.1-0.1,0.2c0,0.1,0.1,0.1,0.1,0.1l0.7,0.2
	c0.3,0.1,0.7,0.2,0.9,0.4l-7.6,7.6L66.4,47c0.3-0.2,0.6-0.3,0.9-0.4l0.9-0.2c0,0,0.1-0.1,0.1-0.1c0,0,0-0.1-0.1-0.1l-4.6-1.2
	c0,0-0.1,0-0.1,0c0,0,0,0.1,0,0.1l1.2,4.4c0,0.1,0.1,0.1,0.2,0.1c0.1,0,0.1-0.1,0.1-0.1l0.2-0.7c0.1-0.3,0.2-0.5,0.3-0.8l7.5,7.5
	l-5.4,5.4h-2.4c-0.2,0-0.4,0.2-0.4,0.4c0,0.2,0.2,0.4,0.4,0.4h1.7l-0.3,0.3h-2.4c-0.2,0-0.4,0.2-0.4,0.4c0,0.2,0.2,0.4,0.4,0.4h1.7
	l-0.3,0.3h-2.4c-0.2,0-0.4,0.2-0.4,0.4c0,0.2,0.2,0.4,0.4,0.4h2.6v2.6c0,0.2,0.2,0.4,0.4,0.4c0.2,0,0.4-0.2,0.4-0.4v-2.4l0.3-0.3
	v1.7c0,0.2,0.2,0.4,0.4,0.4c0.2,0,0.4-0.2,0.4-0.4v-2.4l0.3-0.3v1.7c0,0.2,0.2,0.4,0.4,0.4c0.2,0,0.4-0.2,0.4-0.4v-2.4l5.4-5.4
	l5.4,5.4v2.4c0,0.2,0.2,0.4,0.4,0.4s0.4-0.2,0.4-0.4v-1.7l0.3,0.3v2.4c0,0.2,0.2,0.4,0.4,0.4c0.2,0,0.4-0.2,0.4-0.4v-1.7l0.3,0.3
	l0,0v2.5c0,0.2,0.2,0.4,0.4,0.4c0.2,0,0.4-0.2,0.4-0.4v-2.6h2.6c0.2,0,0.4-0.2,0.4-0.4C85.1,63.1,84.9,62.9,84.7,62.9z"/>
<text transform="matrix(1 0 0 1 45.5874 33.1635)" class="st5 st6 st7">CARBON</text>
</svg>
